<svg width="24" height="24" viewBox="0 0 24 24" fill="none" xmlns="http://www.w3.org/2000/svg">
<g id="Frame 1">
<g id="Group 9551">
<path id="Vector" d="M16.7998 9.80024C16.7998 8.52721 16.2941 7.30631 15.3939 6.40613C14.4937 5.50596 13.2728 5.00024 11.9998 5.00024C10.7268 5.00024 9.50587 5.50596 8.60569 6.40613C7.70552 7.30631 7.1998 8.52721 7.1998 9.80024C7.1998 15.4002 4.7998 17.0002 4.7998 17.0002H19.1998C19.1998 17.0002 16.7998 15.4002 16.7998 9.80024Z" stroke="#686868" stroke-width="2" stroke-linecap="round" stroke-linejoin="round"/>
<path id="Vector_2" d="M13.3835 20.2002C13.2428 20.4427 13.041 20.6439 12.7981 20.7838C12.5552 20.9237 12.2798 20.9974 11.9995 20.9974C11.7192 20.9974 11.4438 20.9237 11.2009 20.7838C10.958 20.6439 10.7561 20.4427 10.6155 20.2002" stroke="#686868" stroke-width="2" stroke-linecap="round" stroke-linejoin="round"/>
</g>
</g>
</svg>
