<svg width="40" height="40" viewBox="0 0 40 40" fill="none" xmlns="http://www.w3.org/2000/svg">
<path fill-rule="evenodd" clip-rule="evenodd" d="M30.7071 10.7071C31.0976 10.3166 31.0976 9.68342 30.7071 9.29289C30.3166 8.90237 29.6834 8.90237 29.2929 9.29289L20 18.5858L10.7071 9.29289C10.3166 8.90237 9.68342 8.90237 9.29289 9.29289C8.90237 9.68342 8.90237 10.3166 9.29289 10.7071L18.5858 20L9.29289 29.2929C8.90237 29.6834 8.90237 30.3166 9.29289 30.7071C9.68342 31.0976 10.3166 31.0976 10.7071 30.7071L20 21.4142L29.2929 30.7071C29.6834 31.0976 30.3166 31.0976 30.7071 30.7071C31.0976 30.3166 31.0976 29.6834 30.7071 29.2929L21.4142 20L30.7071 10.7071Z" fill="#333333"/>
</svg>
