<svg width="14" height="14" viewBox="0 0 14 14" fill="none" xmlns="http://www.w3.org/2000/svg">
<path fill-rule="evenodd" clip-rule="evenodd" d="M3.35425 1.16663C3.35425 0.925001 3.55012 0.729126 3.79175 0.729126H8.75008C8.99171 0.729126 9.18758 0.925001 9.18758 1.16663V4.22913H11.9584C12.2 4.22913 12.3959 4.425 12.3959 4.66663V11.0833C12.3959 11.3249 12.2 11.5208 11.9584 11.5208H3.79175C3.55012 11.5208 3.35425 11.3249 3.35425 11.0833V1.16663ZM4.22925 1.60413V10.6458H11.5209V5.10413H8.75008C8.50846 5.10413 8.31258 4.90825 8.31258 4.66663V1.60413H4.22925Z" fill="#333333"/>
<path fill-rule="evenodd" clip-rule="evenodd" d="M8.45445 0.844124C8.63257 0.680852 8.90932 0.692884 9.07259 0.870999L12.2809 4.371C12.4442 4.54911 12.4322 4.82586 12.254 4.98913C12.0759 5.1524 11.7992 5.14037 11.6359 4.96226L8.42758 1.46226C8.26431 1.28414 8.27634 1.0074 8.45445 0.844124Z" fill="#333333"/>
<path fill-rule="evenodd" clip-rule="evenodd" d="M2.04175 5.39579C2.28337 5.39579 2.47925 5.59167 2.47925 5.83329V12.3958H8.16675C8.40837 12.3958 8.60425 12.5917 8.60425 12.8333C8.60425 13.0749 8.40837 13.2708 8.16675 13.2708H2.04175C1.80012 13.2708 1.60425 13.0749 1.60425 12.8333V5.83329C1.60425 5.59167 1.80012 5.39579 2.04175 5.39579Z" fill="#333333"/>
<path fill-rule="evenodd" clip-rule="evenodd" d="M5.10425 5.83329C5.10425 5.59167 5.30012 5.39579 5.54175 5.39579H6.70841C6.95004 5.39579 7.14591 5.59167 7.14591 5.83329C7.14591 6.07492 6.95004 6.27079 6.70841 6.27079H5.54175C5.30012 6.27079 5.10425 6.07492 5.10425 5.83329Z" fill="#333333"/>
<path fill-rule="evenodd" clip-rule="evenodd" d="M5.10425 8.16663C5.10425 7.925 5.30012 7.72913 5.54175 7.72913H9.04175C9.28337 7.72913 9.47925 7.925 9.47925 8.16663C9.47925 8.40825 9.28337 8.60413 9.04175 8.60413H5.54175C5.30012 8.60413 5.10425 8.40825 5.10425 8.16663Z" fill="#333333"/>
</svg>
