<svg width="40" height="40" viewBox="0 0 40 40" fill="none" xmlns="http://www.w3.org/2000/svg">
<path d="M20.7657 26.4495C20.4533 26.7388 19.9467 26.7388 19.6343 26.4495L13.2343 20.5236C12.9219 20.2343 12.9219 19.7653 13.2343 19.4761L19.6343 13.5501C19.9467 13.2609 20.4533 13.2609 20.7657 13.5501C21.0781 13.8394 21.0781 14.3084 20.7657 14.5977L14.9314 19.9998L20.7657 25.402C21.0781 25.6913 21.0781 26.1603 20.7657 26.4495Z" fill="#9A9A9A"/>
<path d="M26.7657 26.4495C26.4533 26.7388 25.9467 26.7388 25.6343 26.4495L19.2343 20.5236C18.9219 20.2343 18.9219 19.7653 19.2343 19.4761L25.6343 13.5501C25.9467 13.2609 26.4533 13.2609 26.7657 13.5501C27.0781 13.8394 27.0781 14.3084 26.7657 14.5977L20.9314 19.9998L26.7657 25.402C27.0781 25.6913 27.0781 26.1603 26.7657 26.4495Z" fill="#9A9A9A"/>
</svg>
