<svg width="24" height="24" viewBox="0 0 24 24" fill="none" xmlns="http://www.w3.org/2000/svg">
<path d="M3.22485 5.97485C3.22485 5.56064 3.56064 5.22485 3.97485 5.22485H19.9749C20.3891 5.22485 20.7249 5.56064 20.7249 5.97485C20.7249 6.38907 20.3891 6.72485 19.9749 6.72485H3.97485C3.56064 6.72485 3.22485 6.38907 3.22485 5.97485Z" fill="white"/>
<path d="M3.22485 11.9749C3.22485 11.5606 3.56064 11.2249 3.97485 11.2249H19.9749C20.3891 11.2249 20.7249 11.5606 20.7249 11.9749C20.7249 12.3891 20.3891 12.7249 19.9749 12.7249H3.97485C3.56064 12.7249 3.22485 12.3891 3.22485 11.9749Z" fill="white"/>
<path d="M3.22485 17.9749C3.22485 17.5606 3.56064 17.2249 3.97485 17.2249H19.9749C20.3891 17.2249 20.7249 17.5606 20.7249 17.9749C20.7249 18.3891 20.3891 18.7249 19.9749 18.7249H3.97485C3.56064 18.7249 3.22485 18.3891 3.22485 17.9749Z" fill="white"/>
</svg>
