<svg width="12" height="12" viewBox="0 0 12 12" fill="none" xmlns="http://www.w3.org/2000/svg">
<path d="M0.625 4.75C0.625 3.02412 2.02411 1.625 3.75 1.625C4.63386 1.625 5.43194 1.99219 6 2.58136C6.56806 1.99219 7.36614 1.625 8.25 1.625C9.97588 1.625 11.375 3.02412 11.375 4.75C11.375 6.26904 10.4834 7.67164 9.42272 8.7428C8.3584 9.81764 7.05954 10.6246 6.11826 10.9374C6.04148 10.9629 5.95852 10.9629 5.88174 10.9374C4.94046 10.6246 3.6416 9.81764 2.57728 8.7428C1.51661 7.67164 0.625 6.26904 0.625 4.75ZM3.75 2.375C2.43832 2.375 1.375 3.43833 1.375 4.75C1.375 5.98096 2.10839 7.20336 3.11022 8.21509C4.06081 9.17508 5.19549 9.88636 6 10.1841C6.8045 9.88636 7.93919 9.17508 8.88978 8.21509C9.89161 7.20336 10.625 5.98096 10.625 4.75C10.625 3.43833 9.56167 2.375 8.25 2.375C7.44706 2.375 6.73705 2.7731 6.30661 3.38436C6.23637 3.48411 6.12199 3.54345 6 3.54345C5.87801 3.54345 5.76363 3.48411 5.69339 3.38436C5.26295 2.7731 4.55294 2.375 3.75 2.375Z" fill="#444444"/>
</svg>
