<svg width="16" height="16" viewBox="0 0 16 16" fill="none" xmlns="http://www.w3.org/2000/svg">
<path d="M0.833008 6.33366C0.833008 4.03248 2.69849 2.16699 4.99967 2.16699C6.17815 2.16699 7.24227 2.65658 7.99967 3.44213C8.75708 2.65658 9.8212 2.16699 10.9997 2.16699C13.3008 2.16699 15.1663 4.03248 15.1663 6.33366C15.1663 8.35905 13.9775 10.2292 12.5633 11.6574C11.1442 13.0905 9.4124 14.1665 8.15735 14.5835C8.05499 14.6176 7.94436 14.6176 7.842 14.5835C6.58695 14.1665 4.85515 13.0905 3.43605 11.6574C2.02182 10.2292 0.833008 8.35905 0.833008 6.33366ZM4.99967 3.16699C3.25077 3.16699 1.83301 4.58477 1.83301 6.33366C1.83301 7.97494 2.81086 9.6048 4.14663 10.9538C5.41409 12.2338 6.927 13.1821 7.99967 13.5791C9.07235 13.1821 10.5853 12.2338 11.8527 10.9538C13.1885 9.6048 14.1663 7.97494 14.1663 6.33366C14.1663 4.58477 12.7486 3.16699 10.9997 3.16699C9.92909 3.16699 8.98241 3.6978 8.40848 4.51281C8.31483 4.6458 8.16233 4.72493 7.99967 4.72493C7.83701 4.72493 7.68452 4.6458 7.59087 4.51281C7.01694 3.6978 6.07026 3.16699 4.99967 3.16699Z" fill="#444444"/>
</svg>
