<svg width="24" height="24" viewBox="0 0 24 24" fill="none" xmlns="http://www.w3.org/2000/svg">
<path fill-rule="evenodd" clip-rule="evenodd" d="M2.5 12C2.5 11.6259 2.81236 11.3226 3.19767 11.3226H21.8023C22.1876 11.3226 22.5 11.6259 22.5 12C22.5 12.3741 22.1876 12.6774 21.8023 12.6774H3.19767C2.81236 12.6774 2.5 12.3741 2.5 12Z" fill="#666666"/>
<path fill-rule="evenodd" clip-rule="evenodd" d="M2.5 18.3226C2.5 17.9485 2.81236 17.6452 3.19767 17.6452H21.8023C22.1876 17.6452 22.5 17.9485 22.5 18.3226C22.5 18.6967 22.1876 19 21.8023 19H3.19767C2.81236 19 2.5 18.6967 2.5 18.3226Z" fill="#666666"/>
<path fill-rule="evenodd" clip-rule="evenodd" d="M2.5 5.67742C2.5 5.30329 2.81236 5 3.19767 5H21.8023C22.1876 5 22.5 5.30329 22.5 5.67742C22.5 6.05155 22.1876 6.35484 21.8023 6.35484H3.19767C2.81236 6.35484 2.5 6.05155 2.5 5.67742Z" fill="#666666"/>
<path fill-rule="evenodd" clip-rule="evenodd" d="M2.5 12C2.5 11.6259 2.81236 11.3226 3.19767 11.3226H21.8023C22.1876 11.3226 22.5 11.6259 22.5 12C22.5 12.3741 22.1876 12.6774 21.8023 12.6774H3.19767C2.81236 12.6774 2.5 12.3741 2.5 12Z" stroke="#666666" stroke-linejoin="round"/>
<path fill-rule="evenodd" clip-rule="evenodd" d="M2.5 18.3226C2.5 17.9485 2.81236 17.6452 3.19767 17.6452H21.8023C22.1876 17.6452 22.5 17.9485 22.5 18.3226C22.5 18.6967 22.1876 19 21.8023 19H3.19767C2.81236 19 2.5 18.6967 2.5 18.3226Z" stroke="#666666" stroke-linejoin="round"/>
<path fill-rule="evenodd" clip-rule="evenodd" d="M2.5 5.67742C2.5 5.30329 2.81236 5 3.19767 5H21.8023C22.1876 5 22.5 5.30329 22.5 5.67742C22.5 6.05155 22.1876 6.35484 21.8023 6.35484H3.19767C2.81236 6.35484 2.5 6.05155 2.5 5.67742Z" stroke="#666666" stroke-linejoin="round"/>
</svg>
