<svg width="14" height="14" viewBox="0 0 14 14" fill="none" xmlns="http://www.w3.org/2000/svg">
<g id="Base/lock">
<g id="Vector">
<path d="M2.33333 6.85413C2.25279 6.85413 2.1875 6.91942 2.1875 6.99996V12.25C2.1875 12.3305 2.25279 12.3958 2.33333 12.3958H11.6667C11.7472 12.3958 11.8125 12.3305 11.8125 12.25V6.99996C11.8125 6.91942 11.7472 6.85413 11.6667 6.85413H2.33333ZM1.3125 6.99996C1.3125 6.43617 1.76954 5.97913 2.33333 5.97913H11.6667C12.2305 5.97913 12.6875 6.43617 12.6875 6.99996V12.25C12.6875 12.8138 12.2305 13.2708 11.6667 13.2708H2.33333C1.76954 13.2708 1.3125 12.8138 1.3125 12.25V6.99996Z" fill="#1C1B1F"/>
<path d="M7 1.60413C5.63081 1.60413 4.52083 2.71409 4.52083 4.08329V6.41663C4.52083 6.65825 4.32496 6.85413 4.08333 6.85413C3.84171 6.85413 3.64583 6.65825 3.64583 6.41663V4.08329C3.64583 2.23084 5.14756 0.729126 7 0.729126C8.85244 0.729126 10.3542 2.23084 10.3542 4.08329V6.41663C10.3542 6.65825 10.1583 6.85413 9.91667 6.85413C9.67504 6.85413 9.47917 6.65825 9.47917 6.41663V4.08329C9.47917 2.71409 8.36919 1.60413 7 1.60413Z" fill="#1C1B1F"/>
<path d="M7 8.31246C7.24162 8.31246 7.4375 8.50833 7.4375 8.74996V10.5C7.4375 10.7416 7.24162 10.9375 7 10.9375C6.75838 10.9375 6.5625 10.7416 6.5625 10.5V8.74996C6.5625 8.50833 6.75838 8.31246 7 8.31246Z" fill="#1C1B1F"/>
</g>
</g>
</svg>
