<svg width="36" height="36" viewBox="0 0 36 36" fill="none" xmlns="http://www.w3.org/2000/svg">
<path fill-rule="evenodd" clip-rule="evenodd" d="M2.625 5.25C2.625 4.62868 3.12868 4.125 3.75 4.125H12C15.935 4.125 19.125 7.31495 19.125 11.25V31.5C19.125 32.1213 18.6213 32.625 18 32.625C17.3787 32.625 16.875 32.1213 16.875 31.5C16.875 29.636 15.364 28.125 13.5 28.125H3.75C3.12868 28.125 2.625 27.6213 2.625 27V5.25ZM16.875 26.9996V11.25C16.875 8.5576 14.6924 6.375 12 6.375H4.875V25.875H13.5C14.7663 25.875 15.9349 26.2934 16.875 26.9996Z" fill="#5A33BE"/>
<path fill-rule="evenodd" clip-rule="evenodd" d="M16.875 11.25C16.875 7.31495 20.065 4.125 24 4.125H32.25C32.8713 4.125 33.375 4.62868 33.375 5.25V27C33.375 27.6213 32.8713 28.125 32.25 28.125H22.5C20.636 28.125 19.125 29.636 19.125 31.5C19.125 32.1213 18.6213 32.625 18 32.625C17.3787 32.625 16.875 32.1213 16.875 31.5V11.25ZM19.125 26.9996C20.0651 26.2934 21.2337 25.875 22.5 25.875H31.125V6.375H24C21.3076 6.375 19.125 8.5576 19.125 11.25V26.9996Z" fill="#5A33BE"/>
</svg>
