<svg width="13" height="14" viewBox="0 0 13 14" fill="none" xmlns="http://www.w3.org/2000/svg">
<path fill-rule="evenodd" clip-rule="evenodd" d="M6.2207 1.06714C6.38599 1.06672 6.53719 1.1602 6.61067 1.30826L8.30174 4.71558L12.073 5.26548C12.2363 5.28929 12.3719 5.40362 12.4231 5.56052C12.4742 5.71741 12.432 5.88973 12.3141 6.00519L9.5712 8.6914L10.2227 12.424C10.2512 12.5874 10.1841 12.7529 10.0497 12.8502C9.91537 12.9475 9.73727 12.9598 9.59086 12.8817L6.22184 11.0861L2.85356 12.8817C2.70706 12.9598 2.52885 12.9475 2.39446 12.85C2.26007 12.7526 2.19304 12.587 2.22179 12.4235L2.87802 8.69139L0.130649 6.00546C0.01256 5.89001 -0.0297942 5.71755 0.0213783 5.56053C0.0725508 5.40351 0.208385 5.28913 0.371823 5.26543L4.16365 4.71559L5.83198 1.31026C5.9047 1.16182 6.05541 1.06756 6.2207 1.06714Z" stroke="#333333" stroke-linejoin="round"/>
</svg>
