<svg width="36" height="36" viewBox="0 0 36 36" fill="none" xmlns="http://www.w3.org/2000/svg">
<path fill-rule="evenodd" clip-rule="evenodd" d="M1.875 33C1.875 32.3787 2.37868 31.875 3 31.875H33C33.6213 31.875 34.125 32.3787 34.125 33C34.125 33.6213 33.6213 34.125 33 34.125H3C2.37868 34.125 1.875 33.6213 1.875 33Z" fill="#5A33BE"/>
<path fill-rule="evenodd" clip-rule="evenodd" d="M2.30766 18.6133C2.58072 18.4001 2.93677 18.3246 3.27285 18.4086L9.27285 19.9086C9.77367 20.0338 10.125 20.4838 10.125 21V28.5C10.125 29.1213 9.62132 29.625 9 29.625H3C2.37868 29.625 1.875 29.1213 1.875 28.5V19.5C1.875 19.1536 2.03461 18.8265 2.30766 18.6133ZM4.125 20.9409V27.375H7.875V21.8784L4.125 20.9409Z" fill="#5A33BE"/>
<path fill-rule="evenodd" clip-rule="evenodd" d="M21.5914 14.043C21.9231 14.248 22.125 14.6101 22.125 15V28.5C22.125 29.1213 21.6213 29.625 21 29.625H15C14.3787 29.625 13.875 29.1213 13.875 28.5V18C13.875 17.5739 14.1158 17.1843 14.4969 16.9938L20.4969 13.9938C20.8456 13.8194 21.2598 13.838 21.5914 14.043ZM16.125 18.6953V27.375H19.875V16.8203L16.125 18.6953Z" fill="#5A33BE"/>
<path fill-rule="evenodd" clip-rule="evenodd" d="M33.5914 8.04302C33.9231 8.248 34.125 8.6101 34.125 9V28.5C34.125 29.1213 33.6213 29.625 33 29.625H27C26.3787 29.625 25.875 29.1213 25.875 28.5V12C25.875 11.5739 26.1158 11.1843 26.4969 10.9938L32.4969 7.99377C32.8456 7.8194 33.2598 7.83804 33.5914 8.04302ZM28.125 12.6953V27.375H31.875V10.8203L28.125 12.6953Z" fill="#5A33BE"/>
<path fill-rule="evenodd" clip-rule="evenodd" d="M24.3753 3C24.3753 2.37868 24.8789 1.875 25.5003 1.875H33.0003C33.522 1.875 33.9753 2.23374 34.0952 2.74153C34.215 3.24932 33.9701 3.7729 33.5034 4.00623L9.50338 16.0062C9.26318 16.1263 8.98795 16.1565 8.72741 16.0914L2.72741 14.5914C2.12464 14.4407 1.75816 13.8299 1.90886 13.2271C2.05955 12.6244 2.67035 12.2579 3.27312 12.4086L8.86938 13.8077L28.2347 4.125H25.5003C24.8789 4.125 24.3753 3.62132 24.3753 3Z" fill="#5A33BE"/>
</svg>
