<svg width="16" height="16" viewBox="0 0 16 16" fill="none" xmlns="http://www.w3.org/2000/svg">
<path fill-rule="evenodd" clip-rule="evenodd" d="M9.50008 3.66667C9.50008 2.47005 10.4701 1.5 11.6667 1.5C12.8634 1.5 13.8334 2.47005 13.8334 3.66667C13.8334 4.86328 12.8634 5.83333 11.6667 5.83333C10.4701 5.83333 9.50008 4.86328 9.50008 3.66667ZM11.6667 2.5C11.0224 2.5 10.5001 3.02234 10.5001 3.66667C10.5001 4.31099 11.0224 4.83333 11.6667 4.83333C12.3111 4.83333 12.8334 4.31099 12.8334 3.66667C12.8334 3.02234 12.3111 2.5 11.6667 2.5Z" fill="#444444"/>
<path fill-rule="evenodd" clip-rule="evenodd" d="M2.16675 8C2.16675 6.80339 3.13681 5.83333 4.33341 5.83333C5.53002 5.83333 6.50008 6.80339 6.50008 8C6.50008 9.19661 5.53002 10.1667 4.33341 10.1667C3.13681 10.1667 2.16675 9.19661 2.16675 8ZM4.33341 6.83333C3.68909 6.83333 3.16675 7.35568 3.16675 8C3.16675 8.64432 3.68909 9.16667 4.33341 9.16667C4.97774 9.16667 5.50008 8.64432 5.50008 8C5.50008 7.35568 4.97774 6.83333 4.33341 6.83333Z" fill="#444444"/>
<path fill-rule="evenodd" clip-rule="evenodd" d="M10.4278 4.26572C10.5709 4.5019 10.4954 4.80936 10.2592 4.95245L6.03887 7.50942C5.80269 7.65251 5.49523 7.57705 5.35214 7.34087C5.20905 7.10469 5.28451 6.79723 5.52069 6.65414L9.74105 4.09718C9.97723 3.95409 10.2847 4.02955 10.4278 4.26572Z" fill="#444444"/>
<path fill-rule="evenodd" clip-rule="evenodd" d="M5.34932 8.60029C5.4898 8.36255 5.79641 8.28371 6.03415 8.42419L10.4809 11.0519C10.7187 11.1923 10.7975 11.4989 10.657 11.7367C10.5166 11.9744 10.21 12.0533 9.97222 11.9128L5.52542 9.28512C5.28768 9.14463 5.20884 8.83802 5.34932 8.60029Z" fill="#444444"/>
<path fill-rule="evenodd" clip-rule="evenodd" d="M11.6667 11.1667C11.0224 11.1667 10.5001 11.689 10.5001 12.3333C10.5001 12.9777 11.0224 13.5 11.6667 13.5C12.3111 13.5 12.8334 12.9777 12.8334 12.3333C12.8334 11.689 12.3111 11.1667 11.6667 11.1667ZM9.50008 12.3333C9.50008 11.1367 10.4701 10.1667 11.6667 10.1667C12.8634 10.1667 13.8334 11.1367 13.8334 12.3333C13.8334 13.5299 12.8634 14.5 11.6667 14.5C10.4701 14.5 9.50008 13.5299 9.50008 12.3333Z" fill="#444444"/>
</svg>
