<svg width="40" height="40" viewBox="0 0 40 40" fill="none" xmlns="http://www.w3.org/2000/svg">
<path d="M19.2343 13.5505C19.5467 13.2612 20.0533 13.2612 20.3657 13.5505L26.7657 19.4764C27.0781 19.7657 27.0781 20.2347 26.7657 20.5239L20.3657 26.4499C20.0533 26.7391 19.5467 26.7391 19.2343 26.4499C18.9219 26.1606 18.9219 25.6916 19.2343 25.4023L25.0686 20.0002L19.2343 14.598C18.9219 14.3087 18.9219 13.8397 19.2343 13.5505Z" fill="#9A9A9A"/>
<path d="M13.2343 13.5505C13.5467 13.2612 14.0533 13.2612 14.3657 13.5505L20.7657 19.4764C21.0781 19.7657 21.0781 20.2347 20.7657 20.5239L14.3657 26.4499C14.0533 26.7391 13.5467 26.7391 13.2343 26.4499C12.9219 26.1606 12.9219 25.6916 13.2343 25.4023L19.0686 20.0002L13.2343 14.598C12.9219 14.3087 12.9219 13.8397 13.2343 13.5505Z" fill="#9A9A9A"/>
</svg>
