<svg width="12" height="12" viewBox="0 0 12 12" fill="none" xmlns="http://www.w3.org/2000/svg">
<path d="M4.375 3C4.375 2.10254 5.10254 1.375 6 1.375C6.89746 1.375 7.625 2.10254 7.625 3C7.625 3.89746 6.89746 4.625 6 4.625C5.10254 4.625 4.375 3.89746 4.375 3ZM6 0.625C4.68832 0.625 3.625 1.68832 3.625 3C3.625 4.31168 4.68832 5.375 6 5.375C7.31168 5.375 8.375 4.31168 8.375 3C8.375 1.68832 7.31168 0.625 6 0.625ZM6 6.125C3.30762 6.125 1.125 8.30762 1.125 11C1.125 11.2071 1.29289 11.375 1.5 11.375C1.70711 11.375 1.875 11.2071 1.875 11C1.875 8.72183 3.72183 6.875 6 6.875C8.27817 6.875 10.125 8.72183 10.125 11C10.125 11.2071 10.2929 11.375 10.5 11.375C10.7071 11.375 10.875 11.2071 10.875 11C10.875 8.30762 8.69238 6.125 6 6.125Z" fill="#8F8F8F"/>
</svg>
