<svg width="12" height="12" viewBox="0 0 12 12" fill="none" xmlns="http://www.w3.org/2000/svg">
<path d="M1.78616 3.88004C2.82316 2.96743 4.31298 2 6 2C7.68701 2 9.17684 2.96743 10.2138 3.88004C10.7383 4.34158 11.1617 4.80209 11.4541 5.1472C11.6005 5.32004 11.7148 5.46469 11.7931 5.56708C11.8322 5.61829 11.8624 5.65898 11.8832 5.6874L11.9073 5.72064L11.914 5.72996L11.9159 5.73273L11.9166 5.73363C11.9166 5.73363 11.917 5.7342 11.5815 6L11.917 5.7342C12.0278 5.89187 12.0276 6.10837 11.9168 6.26604L11.9159 6.26727L11.914 6.27004L11.9073 6.27936L11.8832 6.3126C11.8624 6.34102 11.8322 6.38171 11.7931 6.43292C11.7148 6.53531 11.6005 6.67996 11.4541 6.8528C11.1617 7.19791 10.7383 7.65842 10.2138 8.11996C9.17684 9.03257 7.68701 10 6 10C4.31298 10 2.82316 9.03257 1.78616 8.11996C1.26172 7.65842 0.83835 7.19791 0.545932 6.8528C0.39948 6.67996 0.285237 6.53531 0.206941 6.43292C0.167778 6.38171 0.137563 6.34102 0.116765 6.3126L0.0926712 6.27936L0.0860205 6.27004L0.0840625 6.26727L0.0834277 6.26637C0.0834277 6.26637 0.0830232 6.2658 0.418491 6.00003L0.0830232 6.2658C-0.0277899 6.10813 -0.0276165 5.89163 0.0831966 5.73396L0.0840625 5.73273L0.0860205 5.72996L0.0926712 5.72064L0.116765 5.6874C0.137563 5.65898 0.167778 5.61829 0.206941 5.56708C0.285237 5.46469 0.39948 5.32004 0.545932 5.1472C0.83835 4.80209 1.26172 4.34158 1.78616 3.88004Z" fill="#444444"/>
<path d="M3 6C3 4.34316 4.34316 3 6 3C7.65684 3 9 4.34316 9 6C9 7.65684 7.65684 9 6 9C4.34316 9 3 7.65684 3 6ZM6 4.38462C5.10786 4.38462 4.38462 5.10786 4.38462 6C4.38462 6.89214 5.10786 7.61538 6 7.61538C6.89214 7.61538 7.61538 6.89214 7.61538 6C7.61538 5.10786 6.89214 4.38462 6 4.38462Z" fill="white"/>
</svg>
