<svg width="24" height="24" viewBox="0 0 24 24" fill="none" xmlns="http://www.w3.org/2000/svg">
<g id="Edit/write">
<g id="Vector">
<path fill-rule="evenodd" clip-rule="evenodd" d="M16.1104 5.1547C16.3167 4.94843 16.6511 4.94843 16.8574 5.1547L19.8453 8.14261C19.9444 8.24167 20 8.37602 20 8.5161C20 8.65619 19.9444 8.79054 19.8453 8.88959L8.8896 19.8453C8.79054 19.9444 8.65619 20 8.5161 20L5.52827 19.9999C5.23657 19.9999 5.0001 19.7635 5.00009 19.4718L5 16.4839C5 16.3438 5.05564 16.2095 5.1547 16.1104L16.1104 5.1547ZM16.4839 6.27517L6.05639 16.7027L6.05646 18.9436L8.29733 18.9436L18.7248 8.51611L16.4839 6.27517Z" fill="#555555"/>
<path fill-rule="evenodd" clip-rule="evenodd" d="M13.1223 8.14256C13.3286 7.93629 13.663 7.93629 13.8693 8.14256L16.8572 11.1305C17.0635 11.3368 17.0635 11.6712 16.8572 11.8775C16.6509 12.0837 16.3165 12.0837 16.1102 11.8775L13.1223 8.88954C12.916 8.68327 12.916 8.34883 13.1223 8.14256Z" fill="#555555"/>
</g>
</g>
</svg>
